<?xml version="1.0" encoding="UTF-8"?><svg id="Layer_2" xmlns="http://www.w3.org/2000/svg" viewBox="0 0 727.578925343579613 104.630151958541319"><defs><style>.cls-1{fill:#1e1e1e;}.cls-2,.cls-3{fill:#5100ba;}.cls-3{opacity:0;}</style></defs><g id="Layer_1-2"><g><path class="cls-2" d="M29.838490402535172,19.489896120521735c.15329505844602-.042581960680764-.166803818379776,0,0,0h0Z"/><path class="cls-2" d="M95.380937947924394,19.490923960951477c.16915316793893,0-.155203904956579-.04375663546125,0,0h0Z"/><g><path class="cls-2" d="M75.067230590466352,19.490562308481458l-26.31488371503292-.000451358610007c-.871032476548862-.000014940140318-1.143760306564218,1.164180842670248-.369295796837832,1.562806354389977,5.680265364590014,2.923695868888899,9.554324382956111,7.301372155439822,12.820031125276728,12.814563985979476,.317314595180505,.535692997540536,1.096920646534272,.53569372767015,1.414239421519596,.000003206050678,3.265607713601639-5.512926550291013,7.139400043844944-9.890486106900426,12.819201719139528-12.814131083590837,.774425828856693-.398631204709091,.501707935691229-1.562776164630122-.3692927540651-1.562791104219286Z"/><path class="cls-2" d="M125.168194117468374,49.647468513610875c-.562816052693961-16.090695100050652-13.759846673110587-29.282292849629812-29.78725616954398-30.156544552659398h-3.886264666492934c-16.127844189897587,1.09303488031037-22.804842458668645,7.742721960510607-28.459726836801565,18.577481603690103-.214965484254208,.411136172069746-.633737042380744,.646511630578971-1.06777937260631,.646511630578971-.018941630785775,0-.037883261567913-.005873373878785-.056971726698976-.006754379968697-.019088465134701,.000881006089912-.038030095918657,.006754379968697-.056971726704433,.006754379968697-.434042330225566,0-.852813888350283-.235375458509225-1.067779372604491-.646511630578971-5.656646390300011-10.837843164470542-12.335700339932373-17.488264416400852-28.473529265433172-18.578509444119845h-2.473424578047343C13.837657922946164,20.345646695810501,.633285585168778,33.489816951250759,.023188872684841,49.550557844491777c-.677640512180005,17.8403731809085,13.584232793902629,32.516466180350108,31.273807100275008,32.516466180350108h19.05366539156239c.902590732039243,0,1.712528991018189,.553859157518673,2.039969585202925,1.394926298098653l9.07304114586077,13.628576766741389c.364002346626876,1.029308773649973,1.826619278770522,1.009339302439912,2.16213576204791-.029660538120879l8.256495341256596-13.538126808889501c.310407809913158-.872783359571258,1.13635101273394-1.455715717829662,2.062582074668171-1.455715717829662l23.477637437390513-.101903036931617c15.983065523581899-1.796077734559731,28.325960746526107-15.724783906918674,27.74567140651925-32.317652474299393Zm-92.10318606711553,17.097700838079618c-9.901709774172559,.780772820529819-18.103109912915897-7.420627318209881-17.32233709238244-17.322337092389716,.614205741883779-7.789316991840678,6.924989019847999-14.100100269808536,14.714306011690496-14.714306011688677,9.901709774178016-.780772820540733,18.103109912921354,7.420627318209881,17.322337092387897,17.322337092378802-.614205741883779,7.789316991849773-6.924989019847999,14.100100269810355-14.714306011695953,14.714306011699591Zm61.738514839298659,.000051117491239c-9.90161738633833,.780361742428795-18.102458551047675-7.420906926090538-17.321707098699335-17.322407916100929,.61419837289759-7.789272474608879,6.924916279565878-14.100018164470384,14.714183999718443-14.714276830540257,9.901928831848636-.780862311348756,18.103507345313119,7.420850174090447,17.322419878284563,17.322821829520763-.614440053988801,7.789355552919005-6.925498212676757,14.099968398599231-14.714896779303672,14.713862917120423Z"/></g></g><g><path class="cls-1" d="M347.962662797654048,20.223002334991179c-9.020403092239576,0-15.900589243796276,3.187467432499034-20.684195210671533,9.561990629988941-.348409548332711,.464282544051457-1.083282846147995,.223108840771602-1.083282846147995-.357362945009299v-7.152533894530279c0-.334068275498794-.270815845606194-.604884121108626-.604884121110445-.604884121108626h-8.979000581342916c-.334068275502432,0-.604884121108626,.270815845609832-.604884121108626,.604884121108626v59.230196221051301c0,.334068275498794,.270815845606194,.604884121108626,.604884121108626,.604884121108626h8.979000581342916c.334068275504251,0,.604884121110445-.270815845609832,.604884121110445-.604884121108626V48.185105309781648c0-5.442127483840522,1.678350465012045-9.841799660409379,5.094384411779174-13.141747270070482,3.415002068217291-3.299947609650189,7.873749291899003-4.978556044299694,13.373146035384707-4.978556044299694,5.384342284920422,0,9.667670154743973,1.620823235729404,12.852563305837975,4.920770845379593,3.183861272544164,3.299947609659284,4.804942477916484,7.583791418759574,4.804942477916484,12.967875734040717v33.55184377166006c0,.334068275498794,.270815845606194,.604884121108626,.604884121110445,.604884121108626h8.979000581337459c.334068275504251,0,.604884121110445-.270815845609832,.604884121110445-.604884121108626V44.769329332650159c0-7.467963051278275-2.25775027202144-13.431189203938629-6.772734876791219-17.888904549059589-4.516016483321437-4.457457375488957-10.421457437063509-6.657422448599391-17.773592120865942-6.657422448599391Z"/><path class="cls-1" d="M434.386115284985863,29.312121420180119c-6.1365966796875-6.078857421869543-13.77813720703125-9.089111328119543-22.92578125-9.089111328119543-9.204345703125,0-16.846435546875,3.01025390625-22.92474365234375,9.03125-6.13653564453125,6.078369140619543-9.20538330078125,13.604736328119543-9.20538330078125,22.577880859369543,0,9.03125,3.06884765625,16.557373046880457,9.20538330078125,22.635986328130457,6.07830810546875,6.078857421869543,13.72039794921875,9.089111328119543,22.92474365234375,9.089111328119543,7.3521728515625,0,13.7786865234375-1.910400390619543,19.3369140625-5.731201171869543,5.2562255859375-3.5966796875,9.03155517578125-8.356689453130457,11.27642822265625-14.22998046875,.15087890625-.394775390630457-.1495361328125-.822265625-.5721435546875-.822265625h-9.9820556640625c-.229736328125,0-.4351806640625,.1337890625-.53521728515625,.340576171869543-1.57464599609375,3.256591796880457-4.06890869140625,5.86572265625-7.48187255859375,7.88037109375-3.5316162109375,2.141845703130457-7.52655029296875,3.18408203125-12.04205322265625,3.18408203125-5.442138671875,0-10.13043212890625-1.67919921875-14.0087890625-5.036865234369543-3.75994873046875-3.151123046880457-6.14678955078125-7.252197265630457-7.1104736328125-12.30322265625-.071044921875-.372314453130457,.2235107421875-.722412109380457,.60247802734375-.722412109380457h51.86578369140625c.3116455078125,0,.57720947265625-.24462890625,.607177734375-.5546875,.12939453125-1.33984375,.17498779296875-2.550537109369543,.17498779296875-3.671630859369543,0-8.97314453125-3.06878662109375-16.499267578130457-9.20538330078125-22.577880859380457Zm-2.42926025390625,17.71484375h-40.87005615234375c-.3878173828125,0-.6839599609375-.365234375-.59710693359375-.7431640625,1.1192626953125-4.8701171875,3.50030517578125-8.845947265619543,7.1929931640625-11.87744140625,3.821044921875-3.183837890619543,8.39434814453125-4.804931640619543,13.77764892578125-4.804931640619543,5.38433837890625,0,10.0164794921875,1.62109375,13.95257568359375,4.863037109369543,3.69122314453125,3.085693359380457,6.07244873046875,7.01025390625,7.142333984375,11.823974609380457,.083740234375,.376708984369543-.21240234375,.738525390619543-.598388671875,.738525390619543Z"/><path class="cls-1" d="M300.412665577954613,29.254260092060576c-6.13653564453125-6.02099609375-13.777587890625-9.03125-22.983032226560681-9.03125-9.204345703125,0-16.846923828125,3.01025390625-22.983520507814319,9.03125-6.19439697265625,6.078369140619543-9.26263427734375,13.604736328119543-9.26263427734375,22.577880859369543,0,9.03125,3.0682373046875,16.557373046880457,9.26263427734375,22.635986328130457,6.136596679689319,6.078857421869543,13.779174804689319,9.089111328119543,22.983520507814319,9.089111328119543,9.205444335935681,0,16.846496582029431-3.01025390625,22.983032226560681-9.089111328119543,6.07879638671875-6.07861328125,9.146606445314319-13.604736328130457,9.146606445314319-22.635986328130457,0-8.97314453125-3.067810058595569-16.49951171875-9.146606445314319-22.577880859369543Zm-7.526000976560681,38.208740234369543c-4.109924316408069,4.16845703125-9.26318359375,6.25244140625-15.45703125,6.25244140625-6.253173828125,0-11.40478515625-2.083984375-15.514770507814319-6.25244140625-4.11102294921875-4.110107421869543-6.19488525390625-9.3203125-6.19488525390625-15.572998046869543,0-6.25244140625,2.0838623046875-11.462646484380457,6.19488525390625-15.630859375,4.109985351564319-4.110107421880457,9.261596679689319-6.1943359375,15.514770507814319-6.1943359375,6.19384765625,0,11.347106933591931,2.084228515619543,15.45703125,6.1943359375,4.111022949216931,4.168212890619543,6.136596679685681,9.37841796875,6.136596679685681,15.630859375,0,6.252685546869543-2.02557373046875,11.462890625-6.136596679685681,15.572998046869543Z"/><path class="cls-1" d="M215.970949682698119,20.223002334991179c-9.710827220818828,0-16.762130816647186,3.82931587351959-21.25612907454888,11.538829612351037-.240949973031093,.413352881078026-.841973926608262,.417968837298758-1.05739459902361-.009244724860764-3.655224886844735-7.248894114440191-10.884421658691281-11.529584887490273-20.121965842794452-11.529584887490273-8.06313004581898,0-14.304123832027472,2.856772531340539-18.72257646318576,8.570317594010703-.351825916806774,.454949593829951-1.076593255476837,.209903367929655-1.076593255476837-.365214540561283v-6.153009263000058c0-.334068275498794-.270815845606194-.604884121108626-.604884121110445-.604884121108626h-8.979516520616016c-.334068275504251,0-.604884121110445,.270815845609832-.604884121110445,.604884121108626v59.230196221051301c0,.334068275498794,.270815845606194,.604884121108626,.604884121110445,.604884121108626h8.979516520616016c.334068275504251,0,.604884121110445-.270815845609832,.604884121110445-.604884121108626V46.158753803070795c0-4.804942477909208,1.505510807532119-8.684031924938608,4.573285742964799-11.636236462529268,3.010505675789318-2.952720476880131,7.005423490292742-4.457715345130055,11.98423750423899-4.457715345130055,4.747157278990926,0,8.567687618189666,1.447209669338918,11.404321757949219,4.283843809089376,2.837150079034473,2.894677308320752,4.284359748371571,6.773508785710874,4.284359748371571,11.57870923325936v35.577937308731634c0,.334068275498794,.270815845608013,.604884121108626,.604884121112264,.604884121108626h8.979000581341097c.334068275504251,0,.604884121108626-.270815845609832,.604884121108626-.604884121108626V46.158753803070795c0-4.804942477909208,1.505510807533938-8.684031924938608,4.573801682241537-11.636236462529268,3.0682908747076-2.952720476880131,7.062692749936105-4.457715345130055,12.041506763878715-4.457715345130055,4.68937208007992,0,8.510418358549941,1.447209669338918,11.347052498305857,4.283843809089376,2.836634139759553,2.894677308320752,4.283843809098471,6.773508785710874,4.283843809098471,11.57870923325936v35.577937308731634c0,.334068275498794,.270815845606194,.604884121108626,.604884121110445,.604884121108626h8.979516520614197c.334068275504251,0,.604884121110445-.270815845609832,.604884121110445-.604884121108626V43.090462928370471c0-6.947122352099541-2.084394675266594-12.504820233778446-6.194366948331663-16.67283567541017-4.168273411258269-4.110488212339988-9.668186094018893-6.194624917969122-16.441436910085031-6.194624917969122Z"/><rect class="cls-1" x="602.836149230242881" y="21.670212004331916" width="10.189800702108187" height="60.439964463268552" rx=".604884121108626" ry=".604884121108626"/><path class="cls-1" d="M492.665789343656797,22.039650726781474l-19.665542502363678,46.538431397950262c-.208035705381917,.492315704088469-.905592394237829,.492666993648527-1.114123854373247,.000561072798519l-19.721284876377467-46.539553543538204c-.094758988965623-.223618342741247-.314076113674673-.368877649660135-.556943215600768-.368877649660135h-10.252902311165599c-.436423529628883,0-.72922261315216,.448089103159873-.553973114238033,.847780371948829l25.920327379391892,59.11645169797157c.068183025601684,.155504924019624,.067867200037654,.332507242828797-.000870325095093,.487767859258383l-9.588587380259924,21.658184295491083c-.177051475380722,.399914328520026,.115748590485964,.849755729539538,.55310278914294,.849755729539538h9.733214155896349c.240056303608071,0,.457395943494703-.141957798950898,.553878311820881-.361771769170446l31.338852871571362-71.398720733890514c.063771532175451-.145289485719331,.067902088907431-.30981899490871,.011501359946124-.458125436938644l-3.936642083504921-10.35145097809982c-.089262328692712-.234716441091223-.314263023497915-.38987103610998-.565379671768824-.38987103610998h-1.597446894249515c-.243088613924556,0-.462560704778298,.145521009199001-.557180638772479,.369438722449559Z"/><path class="cls-1" d="M642.32665735887349,47.142907972151079c-7.931018551538727-1.910523139240468-11.868667106402427-5.268255947808939-11.868667106402427-10.073198425719966,0-2.026351506719948,.868841740875723-3.821046278479116,2.662762603726151-5.326299116370137,1.737167542483803-1.504994868260837,3.821562217752216-2.257492302389437,6.252668086530321-2.257492302389437,2.605493344082788,0,4.804942477912846,.868325801598985,6.541594081118092,2.547192205889587,1.593367319495883,1.539892265409435,2.455782274624653,3.371905042240542,2.587642991977191,5.496436457080563,.020092692238904,.323732167749768,.273903627972686,.582360093419993,.598258730789894,.582360093419993h9.334227998249844c.340433320225202,0,.622322002052897-.283662009091131,.611537626862628-.623924470681231-.149245216549389-4.708900040239314-2.000109791197247-8.727231401209792-5.605661128047359-12.054767299128798-3.76222920100372-3.47356117604977-8.451601281078183-5.210212779260473-13.950998024565706-5.210212779260473-5.500428622033724,0-10.131499563916805,1.620823235729404-13.895276582750739,4.804942477920122-3.762229201001901,3.184119242179804-5.67275234024055,7.410177852359993-5.67275234024055,12.62064860125065,0,5.152427580338554,1.562780067175481,9.089044256648776,4.689372080076282,11.867893197490048,3.126592012904439,2.836892109389737,7.352134683806071,4.920770845379593,12.735445090180292,6.368238484359608,7.932050430088566,2.026351506709034,11.868667106398789,5.44186951420852,11.868667106398789,10.362898329229211,0,2.257750272030535-.926111000520905,4.168273411260088-2.779364880116191,5.731053478441027-1.851706061763252,1.5632960064504-4.109456333786511,2.315793440579-6.831036014986239,2.315793440579-2.779364880114372,0-5.152169610695637-.926368970160183-7.062692749934286-2.720805772289168-1.766368128972317-1.659279377970961-2.741549764443334-3.714372511740294-2.87865458772103-6.073945215370259-.018856848239011-.32452617871968-.273915270416182-.583735202859316-.598988833484327-.583735202859316h-9.332192296362336c-.340529564798999,0-.622535758777303,.284063313369188-.612067514168302,.624431937589179,.151878282849793,4.93823024907033,2.115706730575766,9.130006456860428,5.838111812981879,12.575100531399585,3.878831477391941,3.647174742440257,8.742075093501626,5.441869514210339,14.58869896977194,5.441869514210339,5.846623876268495,0,10.652598232734817-1.678866404290602,14.531429710128577-5.094642381420272,3.878315538117022-3.357732808579385,5.788838677352032-7.757662954789339,5.788838677352032-13.199532468990583,0-8.973215889169296-5.846623876272133-15.052012439668033-17.540903507364419-18.120303314379271Z"/><path class="cls-1" d="M718.373542042798363,29.312121420180119c-6.1365966796875-6.078857421869543-13.77764892578125-9.089111328119543-22.92474365234375-9.089111328119543-9.20538330078125,0-16.84747314453125,3.01025390625-22.92578125,9.03125-6.13653564453125,6.078369140619543-9.20538330078125,13.604736328119543-9.20538330078125,22.577880859369543,0,9.03125,3.06884765625,16.557373046880457,9.20538330078125,22.635986328130457,6.07830810546875,6.078857421869543,13.72039794921875,9.089111328119543,22.92578125,9.089111328119543,7.35113525390625,0,13.77764892578125-1.910400390619543,19.33587646484375-5.731201171869543,5.2562255859375-3.5966796875,9.03204345703125-8.356689453130457,11.27655029296875-14.22998046875,.15081787109375-.394775390630457-.14959716796875-.822265625-.57220458984375-.822265625h-9.98211669921875c-.229736328125,0-.4351806640625,.1337890625-.53521728515625,.340576171869543-1.57464599609375,3.256591796880457-4.06890869140625,5.86572265625-7.48187255859375,7.88037109375-3.5311279296875,2.141845703130457-7.5260009765625,3.18408203125-12.041015625,3.18408203125-5.442626953125,0-10.1314697265625-1.67919921875-14.00982666015625-5.036865234369543-3.75994873046875-3.151123046880457-6.14678955078125-7.252197265630457-7.1104736328125-12.30322265625-.071044921875-.372314453130457,.2235107421875-.722412109380457,.60247802734375-.722412109380457h51.8671875c.31170654296875,0,.57733154296875-.24462890625,.60723876953125-.554931640619543,.12921142578125-1.339599609380457,.17352294921875-2.55029296875,.17352294921875-3.67138671875,0-8.97314453125-3.06878662109375-16.499267578130457-9.20538330078125-22.577880859380457Zm-2.42926025390625,17.71484375h-40.8701171875c-.3878173828125,0-.6839599609375-.365234375-.59710693359375-.7431640625,1.11932373046875-4.8701171875,3.5003662109375-8.845947265619543,7.19305419921875-11.87744140625,3.821044921875-3.183837890619543,8.39434814453125-4.804931640619543,13.7786865234375-4.804931640619543,5.38330078125,0,10.01544189453125,1.62109375,13.9515380859375,4.863037109369543,3.69171142578125,3.085693359380457,6.072509765625,7.01025390625,7.142333984375,11.823974609380457,.083740234375,.376708984369543-.21240234375,.738525390619543-.598388671875,.738525390619543Z"/><path class="cls-1" d="M495.237529147951136,21.670212004331916l4.172916864747094,10.97273855352978,4.444078733664355-10.124739632381534c.175448519903512-.399716271767829-.117350856560734-.847998921148246-.553877237274719-.847998921148246h-8.063118361136731Z"/><path class="cls-1" d="M586.506530230537464,22.072370491001493l-16.372777732814939,46.010754144828752c-.189915202945485,.533699403591527-.943536103675797,.536918355870512-1.138003490468691,.00486077142159l-16.820513244243557-46.020475687670114c-.08719299902441-.23855772016941-.314132264105865-.397234002521145-.56812518710467-.397234002521145h-9.690463873079352c-.253802911758612,0-.480614809574035,.15844249804104-.567946936780572,.39674696207112l-16.990595804461918,46.362489455630566c-.195180401688049,.53259164182964-.950116781774341,.527784206118667-1.138498541129593-.007249959970068l-13.954435622366873-39.632817169471309c-.182410022145632-.518073482389809-.905199244167306-.544478017769507-1.124924544832538-.041095120190221l-5.358124476622834,12.275273791919972c-.063301736074209,.145022039931064-.067255437674248,.309075249520902-.011013230952813,.456978312500723l15.301718565362535,40.239727005910026c.089257609590277,.234725389029336,.314262836944181,.38988812784919,.565386171438149,.38988812784919h9.868539206923742c.254631768490071,0,.481998533396109-.159463475769371,.568721252273463-.39887213801012l16.944264114990801-46.776711534419519c.192648311647645-.531829204290261,.944793376200323-.531829620560529,1.137442276518414-.000000629499482l16.944323140924098,46.776712793429397c.086722900285167,.239408335501139,.314089501174749,.398871508499724,.568721024243132,.398871508499724h9.809711012589105c.251118776370276,0,.476120913814157-.15515718702045,.565381740550947-.389876476079735l22.524498287233655-59.230173164029111c.150542524837874-.395864968930255-.141858275545019-.819891766141154-.565381740550947-.819891766141154h-9.928024064272904c-.255887452249226,0-.484091211956184,.16101602505114-.56987830336584,.402094773940917Z"/></g><rect class="cls-3" x="395.969677699737986" width="61.162211443836895" height="20.223010092060576"/></g></svg>